<svg xmlns="http://www.w3.org/2000/svg" viewBox="0 0 512 512" role="img" aria-label="EdgeAI Observatory icon">
  <defs>
    <linearGradient id="bg" x1="92" y1="58" x2="420" y2="454" gradientUnits="userSpaceOnUse">
      <stop offset="0" stop-color="#172554"/>
      <stop offset="0.52" stop-color="#3f51b5"/>
      <stop offset="1" stop-color="#0f172a"/>
    </linearGradient>
    <linearGradient id="chip" x1="176" y1="168" x2="342" y2="346" gradientUnits="userSpaceOnUse">
      <stop offset="0" stop-color="#f8fafc"/>
      <stop offset="1" stop-color="#dbeafe"/>
    </linearGradient>
  </defs>
  <rect width="512" height="512" rx="112" fill="url(#bg)"/>
  <ellipse cx="256" cy="260" rx="188" ry="74" fill="none" stroke="#f59e0b" stroke-width="18" opacity="0.92" transform="rotate(-22 256 260)"/>
  <circle cx="409" cy="154" r="20" fill="#fbbf24"/>
  <rect x="164" y="164" width="184" height="184" rx="36" fill="url(#chip)"/>
  <rect x="206" y="206" width="100" height="100" rx="18" fill="#1e293b"/>
  <path d="M256 130v34M256 348v34M130 256h34M348 256h34M184 150l24 24M328 150l-24 24M184 362l24-24M328 362l-24-24" stroke="#bfdbfe" stroke-width="16" stroke-linecap="round"/>
  <circle cx="256" cy="256" r="31" fill="#22d3ee"/>
  <circle cx="256" cy="256" r="13" fill="#0f172a"/>
</svg>
